%TF.GenerationSoftware,KiCad,Pcbnew,5.1.8-db9833491~87~ubuntu20.04.1*%
%TF.CreationDate,2020-11-29T22:55:04+09:00*%
%TF.ProjectId,Faston_and_Sun_LED-PCB,46617374-6f6e-45f6-916e-645f53756e5f,V1.0.1*%
%TF.SameCoordinates,Original*%
%TF.FileFunction,Copper,L1,Top*%
%TF.FilePolarity,Positive*%
%FSLAX46Y46*%
G04 Gerber Fmt 4.6, Leading zero omitted, Abs format (unit mm)*
G04 Created by KiCad (PCBNEW 5.1.8-db9833491~87~ubuntu20.04.1) date 2020-11-29 22:55:04*
%MOMM*%
%LPD*%
G01*
G04 APERTURE LIST*
%TA.AperFunction,ComponentPad*%
%ADD10C,3.000000*%
%TD*%
%TA.AperFunction,ComponentPad*%
%ADD11C,4.500000*%
%TD*%
%TA.AperFunction,ComponentPad*%
%ADD12C,3.500000*%
%TD*%
%TA.AperFunction,SMDPad,CuDef*%
%ADD13R,1.000000X2.270000*%
%TD*%
%TA.AperFunction,SMDPad,CuDef*%
%ADD14R,1.600000X3.000000*%
%TD*%
%TA.AperFunction,SMDPad,CuDef*%
%ADD15R,5.800000X6.200000*%
%TD*%
%TA.AperFunction,ComponentPad*%
%ADD16O,1.600000X1.600000*%
%TD*%
%TA.AperFunction,ComponentPad*%
%ADD17C,1.600000*%
%TD*%
%TA.AperFunction,ComponentPad*%
%ADD18O,1.700000X1.700000*%
%TD*%
%TA.AperFunction,ComponentPad*%
%ADD19R,1.700000X1.700000*%
%TD*%
%TA.AperFunction,ComponentPad*%
%ADD20R,3.500000X3.500000*%
%TD*%
%TA.AperFunction,Conductor*%
%ADD21C,2.000000*%
%TD*%
%TA.AperFunction,Conductor*%
%ADD22C,0.254000*%
%TD*%
%TA.AperFunction,Conductor*%
%ADD23C,0.100000*%
%TD*%
G04 APERTURE END LIST*
D10*
%TO.P,J4,2*%
%TO.N,GND*%
X148500000Y-96365000D03*
%TO.P,J4,1*%
X148500000Y-101445000D03*
%TD*%
%TO.P,J3,2*%
%TO.N,VCC*%
X151540000Y-92075000D03*
%TO.P,J3,1*%
X146460000Y-92075000D03*
%TD*%
D11*
%TO.P,J6,1*%
%TO.N,Net-(J1-Pad2)*%
X122200000Y-103500000D03*
%TD*%
%TO.P,J5,1*%
%TO.N,Net-(J1-Pad1)*%
X119000000Y-97000000D03*
%TD*%
D12*
%TO.P,J8,1*%
%TO.N,Net-(J1-Pad2)*%
X137540000Y-103275000D03*
X132460000Y-103275000D03*
%TD*%
%TO.P,J7,1*%
%TO.N,Net-(J1-Pad1)*%
X134400000Y-96520000D03*
X129320000Y-96520000D03*
%TD*%
D13*
%TO.P,D1,2*%
%TO.N,VCC*%
X161700000Y-86405000D03*
%TO.P,D1,1*%
%TO.N,Net-(D1-Pad1)*%
X163300000Y-86405000D03*
%TD*%
D14*
%TO.P,U1,3*%
%TO.N,Net-(R1-Pad1)*%
X166220520Y-92952110D03*
%TO.P,U1,1*%
%TO.N,Net-(D1-Pad1)*%
X170780520Y-92952110D03*
D15*
%TO.P,U1,4*%
%TO.N,GND*%
X168500519Y-100132110D03*
%TD*%
D16*
%TO.P,R1,2*%
%TO.N,GND*%
X160615000Y-100140000D03*
D17*
%TO.P,R1,1*%
%TO.N,Net-(R1-Pad1)*%
X160615000Y-97600000D03*
%TD*%
D18*
%TO.P,J2,2*%
%TO.N,Net-(J1-Pad2)*%
X135430000Y-88035000D03*
D19*
%TO.P,J2,1*%
%TO.N,Net-(J1-Pad1)*%
X135430000Y-85495000D03*
%TD*%
%TO.P,J1,3*%
%TO.N,Net-(J1-Pad2)*%
%TA.AperFunction,ComponentPad*%
G36*
G01*
X122710000Y-91070000D02*
X122710000Y-89320000D01*
G75*
G02*
X123585000Y-88445000I875000J0D01*
G01*
X125335000Y-88445000D01*
G75*
G02*
X126210000Y-89320000I0J-875000D01*
G01*
X126210000Y-91070000D01*
G75*
G02*
X125335000Y-91945000I-875000J0D01*
G01*
X123585000Y-91945000D01*
G75*
G02*
X122710000Y-91070000I0J875000D01*
G01*
G37*
%TD.AperFunction*%
%TO.P,J1,2*%
%TA.AperFunction,ComponentPad*%
G36*
G01*
X119960000Y-86495000D02*
X119960000Y-84495000D01*
G75*
G02*
X120710000Y-83745000I750000J0D01*
G01*
X122210000Y-83745000D01*
G75*
G02*
X122960000Y-84495000I0J-750000D01*
G01*
X122960000Y-86495000D01*
G75*
G02*
X122210000Y-87245000I-750000J0D01*
G01*
X120710000Y-87245000D01*
G75*
G02*
X119960000Y-86495000I0J750000D01*
G01*
G37*
%TD.AperFunction*%
D20*
%TO.P,J1,1*%
%TO.N,Net-(J1-Pad1)*%
X127460000Y-85495000D03*
%TD*%
D21*
%TO.N,VCC*%
X146460000Y-92075000D02*
X151540000Y-92075000D01*
X151540000Y-92075000D02*
X155830000Y-92075000D01*
X155830000Y-92075000D02*
X161000000Y-86905000D01*
%TO.N,Net-(D1-Pad1)*%
X170780520Y-92952110D02*
X164733410Y-86905000D01*
X164733410Y-86905000D02*
X163800000Y-86905000D01*
%TO.N,Net-(J1-Pad2)*%
X133270000Y-90195000D02*
X124460000Y-90195000D01*
X135430000Y-88035000D02*
X133270000Y-90195000D01*
X124460000Y-88495000D02*
X121460000Y-85495000D01*
X124460000Y-90195000D02*
X124460000Y-88495000D01*
X135465000Y-88000000D02*
X135430000Y-88035000D01*
X140000000Y-88000000D02*
X135465000Y-88000000D01*
X140000000Y-100815000D02*
X140000000Y-88000000D01*
X137540000Y-103275000D02*
X140000000Y-100815000D01*
X137540000Y-103275000D02*
X132460000Y-103275000D01*
X122425000Y-103275000D02*
X122200000Y-103500000D01*
X132460000Y-103275000D02*
X122425000Y-103275000D01*
%TO.N,Net-(J1-Pad1)*%
X135430000Y-85495000D02*
X127460000Y-85495000D01*
X124509990Y-82544990D02*
X127460000Y-85495000D01*
X119902278Y-82544990D02*
X124509990Y-82544990D01*
X129320000Y-96520000D02*
X134400000Y-96520000D01*
X119480000Y-96520000D02*
X119000000Y-97000000D01*
X129320000Y-96520000D02*
X119480000Y-96520000D01*
X119000000Y-97000000D02*
X116000000Y-94000000D01*
X116000000Y-86447268D02*
X116000000Y-94000000D01*
X119902278Y-82544990D02*
X116000000Y-86447268D01*
%TO.N,GND*%
X148500000Y-96365000D02*
X148500000Y-101445000D01*
X167187629Y-101445000D02*
X168500519Y-100132110D01*
X160615000Y-101290000D02*
X160460000Y-101445000D01*
X160615000Y-100140000D02*
X160615000Y-101290000D01*
X160460000Y-101445000D02*
X167187629Y-101445000D01*
X148500000Y-101445000D02*
X160460000Y-101445000D01*
%TO.N,Net-(R1-Pad1)*%
X165262890Y-92952110D02*
X160615000Y-97600000D01*
X166220520Y-92952110D02*
X165262890Y-92952110D01*
%TD*%
D22*
%TO.N,GND*%
X172340000Y-92460627D02*
X172298372Y-92323395D01*
X172218592Y-92174138D01*
X172218592Y-91452110D01*
X172206332Y-91327628D01*
X172170022Y-91207930D01*
X172111057Y-91097616D01*
X172031705Y-91000925D01*
X171935014Y-90921573D01*
X171824700Y-90862608D01*
X171705002Y-90826298D01*
X171580520Y-90814038D01*
X170954687Y-90814038D01*
X165946335Y-85805687D01*
X165895124Y-85743286D01*
X165646162Y-85538969D01*
X165362125Y-85387148D01*
X165053926Y-85293657D01*
X164813732Y-85270000D01*
X164813729Y-85270000D01*
X164733410Y-85262089D01*
X164653091Y-85270000D01*
X164438072Y-85270000D01*
X164425812Y-85145518D01*
X164389502Y-85025820D01*
X164330537Y-84915506D01*
X164251185Y-84818815D01*
X164154494Y-84739463D01*
X164044180Y-84680498D01*
X163924482Y-84644188D01*
X163800000Y-84631928D01*
X162800000Y-84631928D01*
X162675518Y-84644188D01*
X162555820Y-84680498D01*
X162500000Y-84710335D01*
X162444180Y-84680498D01*
X162324482Y-84644188D01*
X162200000Y-84631928D01*
X161200000Y-84631928D01*
X161075518Y-84644188D01*
X160955820Y-84680498D01*
X160845506Y-84739463D01*
X160748815Y-84818815D01*
X160669463Y-84915506D01*
X160610498Y-85025820D01*
X160574188Y-85145518D01*
X160561928Y-85270000D01*
X160561928Y-85329318D01*
X160371285Y-85387149D01*
X160087247Y-85538970D01*
X159900676Y-85692085D01*
X155152762Y-90440000D01*
X152924346Y-90440000D01*
X152900983Y-90416637D01*
X152551302Y-90182988D01*
X152162756Y-90022047D01*
X151750279Y-89940000D01*
X151329721Y-89940000D01*
X150917244Y-90022047D01*
X150528698Y-90182988D01*
X150179017Y-90416637D01*
X150155654Y-90440000D01*
X147844346Y-90440000D01*
X147820983Y-90416637D01*
X147471302Y-90182988D01*
X147082756Y-90022047D01*
X146670279Y-89940000D01*
X146249721Y-89940000D01*
X145837244Y-90022047D01*
X145448698Y-90182988D01*
X145099017Y-90416637D01*
X144801637Y-90714017D01*
X144567988Y-91063698D01*
X144407047Y-91452244D01*
X144325000Y-91864721D01*
X144325000Y-92285279D01*
X144407047Y-92697756D01*
X144567988Y-93086302D01*
X144801637Y-93435983D01*
X145099017Y-93733363D01*
X145448698Y-93967012D01*
X145837244Y-94127953D01*
X146249721Y-94210000D01*
X146670279Y-94210000D01*
X147082756Y-94127953D01*
X147471302Y-93967012D01*
X147820983Y-93733363D01*
X147844346Y-93710000D01*
X150155654Y-93710000D01*
X150179017Y-93733363D01*
X150528698Y-93967012D01*
X150917244Y-94127953D01*
X151329721Y-94210000D01*
X151750279Y-94210000D01*
X152162756Y-94127953D01*
X152551302Y-93967012D01*
X152900983Y-93733363D01*
X152924346Y-93710000D01*
X155749681Y-93710000D01*
X155830000Y-93717911D01*
X155910319Y-93710000D01*
X155910322Y-93710000D01*
X156150516Y-93686343D01*
X156458715Y-93592852D01*
X156742752Y-93441031D01*
X156991714Y-93236714D01*
X157042925Y-93174313D01*
X162039167Y-88178072D01*
X162200000Y-88178072D01*
X162324482Y-88165812D01*
X162444180Y-88129502D01*
X162500000Y-88099665D01*
X162555820Y-88129502D01*
X162675518Y-88165812D01*
X162770428Y-88175159D01*
X162887248Y-88271031D01*
X163171285Y-88422852D01*
X163479484Y-88516343D01*
X163719678Y-88540000D01*
X164056172Y-88540000D01*
X166330210Y-90814038D01*
X165420520Y-90814038D01*
X165296038Y-90826298D01*
X165176340Y-90862608D01*
X165066026Y-90921573D01*
X164969335Y-91000925D01*
X164889983Y-91097616D01*
X164831018Y-91207930D01*
X164794708Y-91327628D01*
X164788827Y-91387345D01*
X164634175Y-91434258D01*
X164350138Y-91586079D01*
X164101176Y-91790396D01*
X164049970Y-91852791D01*
X159402085Y-96500677D01*
X159248970Y-96687248D01*
X159097148Y-96971286D01*
X159003658Y-97279484D01*
X158972089Y-97600000D01*
X159003658Y-97920516D01*
X159097148Y-98228714D01*
X159248970Y-98512752D01*
X159453287Y-98761713D01*
X159702248Y-98966030D01*
X159759389Y-98996572D01*
X159651586Y-99076481D01*
X159462615Y-99284869D01*
X159317930Y-99526119D01*
X159223091Y-99790960D01*
X159344376Y-100013000D01*
X160488000Y-100013000D01*
X160488000Y-99993000D01*
X160742000Y-99993000D01*
X160742000Y-100013000D01*
X161885624Y-100013000D01*
X162006909Y-99790960D01*
X161912070Y-99526119D01*
X161767385Y-99284869D01*
X161578414Y-99076481D01*
X161470611Y-98996572D01*
X161527752Y-98966030D01*
X161714323Y-98812915D01*
X163495128Y-97032110D01*
X164962447Y-97032110D01*
X164965519Y-99846360D01*
X165124269Y-100005110D01*
X168373519Y-100005110D01*
X168373519Y-96555860D01*
X168627519Y-96555860D01*
X168627519Y-100005110D01*
X171876769Y-100005110D01*
X172035519Y-99846360D01*
X172038591Y-97032110D01*
X172026331Y-96907628D01*
X171990021Y-96787930D01*
X171931056Y-96677616D01*
X171851704Y-96580925D01*
X171755013Y-96501573D01*
X171644699Y-96442608D01*
X171525001Y-96406298D01*
X171400519Y-96394038D01*
X168786269Y-96397110D01*
X168627519Y-96555860D01*
X168373519Y-96555860D01*
X168214769Y-96397110D01*
X165600519Y-96394038D01*
X165476037Y-96406298D01*
X165356339Y-96442608D01*
X165246025Y-96501573D01*
X165149334Y-96580925D01*
X165069982Y-96677616D01*
X165011017Y-96787930D01*
X164974707Y-96907628D01*
X164962447Y-97032110D01*
X163495128Y-97032110D01*
X165437057Y-95090182D01*
X167020520Y-95090182D01*
X167145002Y-95077922D01*
X167264700Y-95041612D01*
X167375014Y-94982647D01*
X167471705Y-94903295D01*
X167551057Y-94806604D01*
X167610022Y-94696290D01*
X167646332Y-94576592D01*
X167658592Y-94452110D01*
X167658592Y-93730083D01*
X167738372Y-93580825D01*
X167831863Y-93272626D01*
X167863431Y-92952110D01*
X167831863Y-92631594D01*
X167738372Y-92323395D01*
X167658592Y-92174137D01*
X167658592Y-92142421D01*
X169342448Y-93826277D01*
X169342448Y-94452110D01*
X169354708Y-94576592D01*
X169391018Y-94696290D01*
X169449983Y-94806604D01*
X169529335Y-94903295D01*
X169626026Y-94982647D01*
X169736340Y-95041612D01*
X169856038Y-95077922D01*
X169980520Y-95090182D01*
X171580520Y-95090182D01*
X171705002Y-95077922D01*
X171824700Y-95041612D01*
X171935014Y-94982647D01*
X172031705Y-94903295D01*
X172111057Y-94806604D01*
X172170022Y-94696290D01*
X172206332Y-94576592D01*
X172218592Y-94452110D01*
X172218592Y-93730081D01*
X172298372Y-93580824D01*
X172340001Y-93443592D01*
X172340001Y-106340000D01*
X122710378Y-106340000D01*
X123041523Y-106274131D01*
X123566560Y-106056654D01*
X124039080Y-105740926D01*
X124440926Y-105339080D01*
X124727628Y-104910000D01*
X130722101Y-104910000D01*
X130939651Y-105127550D01*
X131330279Y-105388560D01*
X131764321Y-105568346D01*
X132225098Y-105660000D01*
X132694902Y-105660000D01*
X133155679Y-105568346D01*
X133589721Y-105388560D01*
X133980349Y-105127550D01*
X134197899Y-104910000D01*
X135802101Y-104910000D01*
X136019651Y-105127550D01*
X136410279Y-105388560D01*
X136844321Y-105568346D01*
X137305098Y-105660000D01*
X137774902Y-105660000D01*
X138235679Y-105568346D01*
X138669721Y-105388560D01*
X139060349Y-105127550D01*
X139392550Y-104795349D01*
X139653560Y-104404721D01*
X139833346Y-103970679D01*
X139925000Y-103509902D01*
X139925000Y-103202238D01*
X140190585Y-102936653D01*
X147187952Y-102936653D01*
X147343962Y-103252214D01*
X147718745Y-103443020D01*
X148123551Y-103557044D01*
X148542824Y-103589902D01*
X148960451Y-103540334D01*
X149360383Y-103410243D01*
X149656038Y-103252214D01*
X149665977Y-103232110D01*
X164962447Y-103232110D01*
X164974707Y-103356592D01*
X165011017Y-103476290D01*
X165069982Y-103586604D01*
X165149334Y-103683295D01*
X165246025Y-103762647D01*
X165356339Y-103821612D01*
X165476037Y-103857922D01*
X165600519Y-103870182D01*
X168214769Y-103867110D01*
X168373519Y-103708360D01*
X168373519Y-100259110D01*
X168627519Y-100259110D01*
X168627519Y-103708360D01*
X168786269Y-103867110D01*
X171400519Y-103870182D01*
X171525001Y-103857922D01*
X171644699Y-103821612D01*
X171755013Y-103762647D01*
X171851704Y-103683295D01*
X171931056Y-103586604D01*
X171990021Y-103476290D01*
X172026331Y-103356592D01*
X172038591Y-103232110D01*
X172035519Y-100417860D01*
X171876769Y-100259110D01*
X168627519Y-100259110D01*
X168373519Y-100259110D01*
X165124269Y-100259110D01*
X164965519Y-100417860D01*
X164962447Y-103232110D01*
X149665977Y-103232110D01*
X149812048Y-102936653D01*
X148500000Y-101624605D01*
X147187952Y-102936653D01*
X140190585Y-102936653D01*
X141099320Y-102027919D01*
X141161714Y-101976714D01*
X141366031Y-101727752D01*
X141494275Y-101487824D01*
X146355098Y-101487824D01*
X146404666Y-101905451D01*
X146534757Y-102305383D01*
X146692786Y-102601038D01*
X147008347Y-102757048D01*
X148320395Y-101445000D01*
X148679605Y-101445000D01*
X149991653Y-102757048D01*
X150307214Y-102601038D01*
X150498020Y-102226255D01*
X150612044Y-101821449D01*
X150644902Y-101402176D01*
X150595334Y-100984549D01*
X150465243Y-100584617D01*
X150414157Y-100489040D01*
X159223091Y-100489040D01*
X159317930Y-100753881D01*
X159462615Y-100995131D01*
X159651586Y-101203519D01*
X159877580Y-101371037D01*
X160131913Y-101491246D01*
X160265961Y-101531904D01*
X160488000Y-101409915D01*
X160488000Y-100267000D01*
X160742000Y-100267000D01*
X160742000Y-101409915D01*
X160964039Y-101531904D01*
X161098087Y-101491246D01*
X161352420Y-101371037D01*
X161578414Y-101203519D01*
X161767385Y-100995131D01*
X161912070Y-100753881D01*
X162006909Y-100489040D01*
X161885624Y-100267000D01*
X160742000Y-100267000D01*
X160488000Y-100267000D01*
X159344376Y-100267000D01*
X159223091Y-100489040D01*
X150414157Y-100489040D01*
X150307214Y-100288962D01*
X149991653Y-100132952D01*
X148679605Y-101445000D01*
X148320395Y-101445000D01*
X147008347Y-100132952D01*
X146692786Y-100288962D01*
X146501980Y-100663745D01*
X146387956Y-101068551D01*
X146355098Y-101487824D01*
X141494275Y-101487824D01*
X141517852Y-101443715D01*
X141611343Y-101135516D01*
X141635000Y-100895322D01*
X141635000Y-100895320D01*
X141642911Y-100815001D01*
X141635000Y-100734681D01*
X141635000Y-99953347D01*
X147187952Y-99953347D01*
X148500000Y-101265395D01*
X149812048Y-99953347D01*
X149656038Y-99637786D01*
X149281255Y-99446980D01*
X148876449Y-99332956D01*
X148457176Y-99300098D01*
X148039549Y-99349666D01*
X147639617Y-99479757D01*
X147343962Y-99637786D01*
X147187952Y-99953347D01*
X141635000Y-99953347D01*
X141635000Y-97856653D01*
X147187952Y-97856653D01*
X147343962Y-98172214D01*
X147718745Y-98363020D01*
X148123551Y-98477044D01*
X148542824Y-98509902D01*
X148960451Y-98460334D01*
X149360383Y-98330243D01*
X149656038Y-98172214D01*
X149812048Y-97856653D01*
X148500000Y-96544605D01*
X147187952Y-97856653D01*
X141635000Y-97856653D01*
X141635000Y-96407824D01*
X146355098Y-96407824D01*
X146404666Y-96825451D01*
X146534757Y-97225383D01*
X146692786Y-97521038D01*
X147008347Y-97677048D01*
X148320395Y-96365000D01*
X148679605Y-96365000D01*
X149991653Y-97677048D01*
X150307214Y-97521038D01*
X150498020Y-97146255D01*
X150612044Y-96741449D01*
X150644902Y-96322176D01*
X150595334Y-95904549D01*
X150465243Y-95504617D01*
X150307214Y-95208962D01*
X149991653Y-95052952D01*
X148679605Y-96365000D01*
X148320395Y-96365000D01*
X147008347Y-95052952D01*
X146692786Y-95208962D01*
X146501980Y-95583745D01*
X146387956Y-95988551D01*
X146355098Y-96407824D01*
X141635000Y-96407824D01*
X141635000Y-94873347D01*
X147187952Y-94873347D01*
X148500000Y-96185395D01*
X149812048Y-94873347D01*
X149656038Y-94557786D01*
X149281255Y-94366980D01*
X148876449Y-94252956D01*
X148457176Y-94220098D01*
X148039549Y-94269666D01*
X147639617Y-94399757D01*
X147343962Y-94557786D01*
X147187952Y-94873347D01*
X141635000Y-94873347D01*
X141635000Y-88080322D01*
X141642911Y-88000000D01*
X141624523Y-87813298D01*
X141611343Y-87679484D01*
X141517852Y-87371285D01*
X141366031Y-87087248D01*
X141161714Y-86838286D01*
X140912752Y-86633969D01*
X140628715Y-86482148D01*
X140320516Y-86388657D01*
X140000000Y-86357089D01*
X139919678Y-86365000D01*
X136916102Y-86365000D01*
X136918072Y-86345000D01*
X136918072Y-86179429D01*
X136947852Y-86123715D01*
X137041343Y-85815516D01*
X137072911Y-85495000D01*
X137041343Y-85174484D01*
X136947852Y-84866285D01*
X136918072Y-84810571D01*
X136918072Y-84645000D01*
X136905812Y-84520518D01*
X136869502Y-84400820D01*
X136810537Y-84290506D01*
X136731185Y-84193815D01*
X136634494Y-84114463D01*
X136524180Y-84055498D01*
X136404482Y-84019188D01*
X136280000Y-84006928D01*
X136114429Y-84006928D01*
X136058715Y-83977148D01*
X135750516Y-83883657D01*
X135510322Y-83860000D01*
X129848072Y-83860000D01*
X129848072Y-83745000D01*
X129835812Y-83620518D01*
X129799502Y-83500820D01*
X129740537Y-83390506D01*
X129661185Y-83293815D01*
X129564494Y-83214463D01*
X129454180Y-83155498D01*
X129334482Y-83119188D01*
X129210000Y-83106928D01*
X127384167Y-83106928D01*
X125722915Y-81445677D01*
X125671704Y-81383276D01*
X125422742Y-81178959D01*
X125138705Y-81027138D01*
X124830506Y-80933647D01*
X124590312Y-80909990D01*
X124590309Y-80909990D01*
X124509990Y-80902079D01*
X124429671Y-80909990D01*
X119982597Y-80909990D01*
X119902277Y-80902079D01*
X119821958Y-80909990D01*
X119821956Y-80909990D01*
X119581762Y-80933647D01*
X119273563Y-81027138D01*
X118989526Y-81178959D01*
X118740564Y-81383276D01*
X118689358Y-81445671D01*
X114900687Y-85234343D01*
X114838286Y-85285554D01*
X114633969Y-85534517D01*
X114482148Y-85818554D01*
X114388657Y-86126753D01*
X114367162Y-86345000D01*
X114357089Y-86447268D01*
X114365000Y-86527588D01*
X114365001Y-93919671D01*
X114357089Y-94000000D01*
X114388658Y-94320516D01*
X114482148Y-94628714D01*
X114551827Y-94759074D01*
X114633970Y-94912752D01*
X114838287Y-95161714D01*
X114900682Y-95212920D01*
X116162884Y-96475123D01*
X116115000Y-96715852D01*
X116115000Y-97284148D01*
X116225869Y-97841523D01*
X116443346Y-98366560D01*
X116759074Y-98839080D01*
X117160920Y-99240926D01*
X117633440Y-99556654D01*
X118158477Y-99774131D01*
X118715852Y-99885000D01*
X119284148Y-99885000D01*
X119841523Y-99774131D01*
X120366560Y-99556654D01*
X120839080Y-99240926D01*
X121240926Y-98839080D01*
X121556654Y-98366560D01*
X121644285Y-98155000D01*
X127582101Y-98155000D01*
X127799651Y-98372550D01*
X128190279Y-98633560D01*
X128624321Y-98813346D01*
X129085098Y-98905000D01*
X129554902Y-98905000D01*
X130015679Y-98813346D01*
X130449721Y-98633560D01*
X130840349Y-98372550D01*
X131057899Y-98155000D01*
X132662101Y-98155000D01*
X132879651Y-98372550D01*
X133270279Y-98633560D01*
X133704321Y-98813346D01*
X134165098Y-98905000D01*
X134634902Y-98905000D01*
X135095679Y-98813346D01*
X135529721Y-98633560D01*
X135920349Y-98372550D01*
X136252550Y-98040349D01*
X136513560Y-97649721D01*
X136693346Y-97215679D01*
X136785000Y-96754902D01*
X136785000Y-96285098D01*
X136693346Y-95824321D01*
X136513560Y-95390279D01*
X136252550Y-94999651D01*
X135920349Y-94667450D01*
X135529721Y-94406440D01*
X135095679Y-94226654D01*
X134634902Y-94135000D01*
X134165098Y-94135000D01*
X133704321Y-94226654D01*
X133270279Y-94406440D01*
X132879651Y-94667450D01*
X132662101Y-94885000D01*
X131057899Y-94885000D01*
X130840349Y-94667450D01*
X130449721Y-94406440D01*
X130015679Y-94226654D01*
X129554902Y-94135000D01*
X129085098Y-94135000D01*
X128624321Y-94226654D01*
X128190279Y-94406440D01*
X127799651Y-94667450D01*
X127582101Y-94885000D01*
X120965006Y-94885000D01*
X120839080Y-94759074D01*
X120366560Y-94443346D01*
X119841523Y-94225869D01*
X119284148Y-94115000D01*
X118715852Y-94115000D01*
X118475123Y-94162884D01*
X117635000Y-93322762D01*
X117635000Y-87124506D01*
X119321928Y-85437579D01*
X119321928Y-86495000D01*
X119348599Y-86765799D01*
X119427589Y-87026192D01*
X119555860Y-87266171D01*
X119728485Y-87476515D01*
X119938829Y-87649140D01*
X120178808Y-87777411D01*
X120439201Y-87856401D01*
X120710000Y-87883072D01*
X121535833Y-87883072D01*
X122259078Y-88606318D01*
X122187104Y-88740972D01*
X122101001Y-89024814D01*
X122071928Y-89320000D01*
X122071928Y-91070000D01*
X122101001Y-91365186D01*
X122187104Y-91649028D01*
X122326927Y-91910618D01*
X122515097Y-92139903D01*
X122744382Y-92328073D01*
X123005972Y-92467896D01*
X123289814Y-92553999D01*
X123585000Y-92583072D01*
X125335000Y-92583072D01*
X125630186Y-92553999D01*
X125914028Y-92467896D01*
X126175618Y-92328073D01*
X126404903Y-92139903D01*
X126593073Y-91910618D01*
X126636164Y-91830000D01*
X133189681Y-91830000D01*
X133270000Y-91837911D01*
X133350319Y-91830000D01*
X133350322Y-91830000D01*
X133590516Y-91806343D01*
X133898715Y-91712852D01*
X134182752Y-91561031D01*
X134431714Y-91356714D01*
X134482925Y-91294313D01*
X136142239Y-89635000D01*
X138365001Y-89635000D01*
X138365000Y-100137761D01*
X137612762Y-100890000D01*
X137305098Y-100890000D01*
X136844321Y-100981654D01*
X136410279Y-101161440D01*
X136019651Y-101422450D01*
X135802101Y-101640000D01*
X134197899Y-101640000D01*
X133980349Y-101422450D01*
X133589721Y-101161440D01*
X133155679Y-100981654D01*
X132694902Y-100890000D01*
X132225098Y-100890000D01*
X131764321Y-100981654D01*
X131330279Y-101161440D01*
X130939651Y-101422450D01*
X130722101Y-101640000D01*
X124420006Y-101640000D01*
X124039080Y-101259074D01*
X123566560Y-100943346D01*
X123041523Y-100725869D01*
X122484148Y-100615000D01*
X121915852Y-100615000D01*
X121358477Y-100725869D01*
X120833440Y-100943346D01*
X120360920Y-101259074D01*
X119959074Y-101660920D01*
X119643346Y-102133440D01*
X119425869Y-102658477D01*
X119315000Y-103215852D01*
X119315000Y-103784148D01*
X119425869Y-104341523D01*
X119643346Y-104866560D01*
X119959074Y-105339080D01*
X120360920Y-105740926D01*
X120833440Y-106056654D01*
X121358477Y-106274131D01*
X121689622Y-106340000D01*
X113660000Y-106340000D01*
X113660000Y-79660000D01*
X172340000Y-79660000D01*
X172340000Y-92460627D01*
%TA.AperFunction,Conductor*%
D23*
G36*
X172340000Y-92460627D02*
G01*
X172298372Y-92323395D01*
X172218592Y-92174138D01*
X172218592Y-91452110D01*
X172206332Y-91327628D01*
X172170022Y-91207930D01*
X172111057Y-91097616D01*
X172031705Y-91000925D01*
X171935014Y-90921573D01*
X171824700Y-90862608D01*
X171705002Y-90826298D01*
X171580520Y-90814038D01*
X170954687Y-90814038D01*
X165946335Y-85805687D01*
X165895124Y-85743286D01*
X165646162Y-85538969D01*
X165362125Y-85387148D01*
X165053926Y-85293657D01*
X164813732Y-85270000D01*
X164813729Y-85270000D01*
X164733410Y-85262089D01*
X164653091Y-85270000D01*
X164438072Y-85270000D01*
X164425812Y-85145518D01*
X164389502Y-85025820D01*
X164330537Y-84915506D01*
X164251185Y-84818815D01*
X164154494Y-84739463D01*
X164044180Y-84680498D01*
X163924482Y-84644188D01*
X163800000Y-84631928D01*
X162800000Y-84631928D01*
X162675518Y-84644188D01*
X162555820Y-84680498D01*
X162500000Y-84710335D01*
X162444180Y-84680498D01*
X162324482Y-84644188D01*
X162200000Y-84631928D01*
X161200000Y-84631928D01*
X161075518Y-84644188D01*
X160955820Y-84680498D01*
X160845506Y-84739463D01*
X160748815Y-84818815D01*
X160669463Y-84915506D01*
X160610498Y-85025820D01*
X160574188Y-85145518D01*
X160561928Y-85270000D01*
X160561928Y-85329318D01*
X160371285Y-85387149D01*
X160087247Y-85538970D01*
X159900676Y-85692085D01*
X155152762Y-90440000D01*
X152924346Y-90440000D01*
X152900983Y-90416637D01*
X152551302Y-90182988D01*
X152162756Y-90022047D01*
X151750279Y-89940000D01*
X151329721Y-89940000D01*
X150917244Y-90022047D01*
X150528698Y-90182988D01*
X150179017Y-90416637D01*
X150155654Y-90440000D01*
X147844346Y-90440000D01*
X147820983Y-90416637D01*
X147471302Y-90182988D01*
X147082756Y-90022047D01*
X146670279Y-89940000D01*
X146249721Y-89940000D01*
X145837244Y-90022047D01*
X145448698Y-90182988D01*
X145099017Y-90416637D01*
X144801637Y-90714017D01*
X144567988Y-91063698D01*
X144407047Y-91452244D01*
X144325000Y-91864721D01*
X144325000Y-92285279D01*
X144407047Y-92697756D01*
X144567988Y-93086302D01*
X144801637Y-93435983D01*
X145099017Y-93733363D01*
X145448698Y-93967012D01*
X145837244Y-94127953D01*
X146249721Y-94210000D01*
X146670279Y-94210000D01*
X147082756Y-94127953D01*
X147471302Y-93967012D01*
X147820983Y-93733363D01*
X147844346Y-93710000D01*
X150155654Y-93710000D01*
X150179017Y-93733363D01*
X150528698Y-93967012D01*
X150917244Y-94127953D01*
X151329721Y-94210000D01*
X151750279Y-94210000D01*
X152162756Y-94127953D01*
X152551302Y-93967012D01*
X152900983Y-93733363D01*
X152924346Y-93710000D01*
X155749681Y-93710000D01*
X155830000Y-93717911D01*
X155910319Y-93710000D01*
X155910322Y-93710000D01*
X156150516Y-93686343D01*
X156458715Y-93592852D01*
X156742752Y-93441031D01*
X156991714Y-93236714D01*
X157042925Y-93174313D01*
X162039167Y-88178072D01*
X162200000Y-88178072D01*
X162324482Y-88165812D01*
X162444180Y-88129502D01*
X162500000Y-88099665D01*
X162555820Y-88129502D01*
X162675518Y-88165812D01*
X162770428Y-88175159D01*
X162887248Y-88271031D01*
X163171285Y-88422852D01*
X163479484Y-88516343D01*
X163719678Y-88540000D01*
X164056172Y-88540000D01*
X166330210Y-90814038D01*
X165420520Y-90814038D01*
X165296038Y-90826298D01*
X165176340Y-90862608D01*
X165066026Y-90921573D01*
X164969335Y-91000925D01*
X164889983Y-91097616D01*
X164831018Y-91207930D01*
X164794708Y-91327628D01*
X164788827Y-91387345D01*
X164634175Y-91434258D01*
X164350138Y-91586079D01*
X164101176Y-91790396D01*
X164049970Y-91852791D01*
X159402085Y-96500677D01*
X159248970Y-96687248D01*
X159097148Y-96971286D01*
X159003658Y-97279484D01*
X158972089Y-97600000D01*
X159003658Y-97920516D01*
X159097148Y-98228714D01*
X159248970Y-98512752D01*
X159453287Y-98761713D01*
X159702248Y-98966030D01*
X159759389Y-98996572D01*
X159651586Y-99076481D01*
X159462615Y-99284869D01*
X159317930Y-99526119D01*
X159223091Y-99790960D01*
X159344376Y-100013000D01*
X160488000Y-100013000D01*
X160488000Y-99993000D01*
X160742000Y-99993000D01*
X160742000Y-100013000D01*
X161885624Y-100013000D01*
X162006909Y-99790960D01*
X161912070Y-99526119D01*
X161767385Y-99284869D01*
X161578414Y-99076481D01*
X161470611Y-98996572D01*
X161527752Y-98966030D01*
X161714323Y-98812915D01*
X163495128Y-97032110D01*
X164962447Y-97032110D01*
X164965519Y-99846360D01*
X165124269Y-100005110D01*
X168373519Y-100005110D01*
X168373519Y-96555860D01*
X168627519Y-96555860D01*
X168627519Y-100005110D01*
X171876769Y-100005110D01*
X172035519Y-99846360D01*
X172038591Y-97032110D01*
X172026331Y-96907628D01*
X171990021Y-96787930D01*
X171931056Y-96677616D01*
X171851704Y-96580925D01*
X171755013Y-96501573D01*
X171644699Y-96442608D01*
X171525001Y-96406298D01*
X171400519Y-96394038D01*
X168786269Y-96397110D01*
X168627519Y-96555860D01*
X168373519Y-96555860D01*
X168214769Y-96397110D01*
X165600519Y-96394038D01*
X165476037Y-96406298D01*
X165356339Y-96442608D01*
X165246025Y-96501573D01*
X165149334Y-96580925D01*
X165069982Y-96677616D01*
X165011017Y-96787930D01*
X164974707Y-96907628D01*
X164962447Y-97032110D01*
X163495128Y-97032110D01*
X165437057Y-95090182D01*
X167020520Y-95090182D01*
X167145002Y-95077922D01*
X167264700Y-95041612D01*
X167375014Y-94982647D01*
X167471705Y-94903295D01*
X167551057Y-94806604D01*
X167610022Y-94696290D01*
X167646332Y-94576592D01*
X167658592Y-94452110D01*
X167658592Y-93730083D01*
X167738372Y-93580825D01*
X167831863Y-93272626D01*
X167863431Y-92952110D01*
X167831863Y-92631594D01*
X167738372Y-92323395D01*
X167658592Y-92174137D01*
X167658592Y-92142421D01*
X169342448Y-93826277D01*
X169342448Y-94452110D01*
X169354708Y-94576592D01*
X169391018Y-94696290D01*
X169449983Y-94806604D01*
X169529335Y-94903295D01*
X169626026Y-94982647D01*
X169736340Y-95041612D01*
X169856038Y-95077922D01*
X169980520Y-95090182D01*
X171580520Y-95090182D01*
X171705002Y-95077922D01*
X171824700Y-95041612D01*
X171935014Y-94982647D01*
X172031705Y-94903295D01*
X172111057Y-94806604D01*
X172170022Y-94696290D01*
X172206332Y-94576592D01*
X172218592Y-94452110D01*
X172218592Y-93730081D01*
X172298372Y-93580824D01*
X172340001Y-93443592D01*
X172340001Y-106340000D01*
X122710378Y-106340000D01*
X123041523Y-106274131D01*
X123566560Y-106056654D01*
X124039080Y-105740926D01*
X124440926Y-105339080D01*
X124727628Y-104910000D01*
X130722101Y-104910000D01*
X130939651Y-105127550D01*
X131330279Y-105388560D01*
X131764321Y-105568346D01*
X132225098Y-105660000D01*
X132694902Y-105660000D01*
X133155679Y-105568346D01*
X133589721Y-105388560D01*
X133980349Y-105127550D01*
X134197899Y-104910000D01*
X135802101Y-104910000D01*
X136019651Y-105127550D01*
X136410279Y-105388560D01*
X136844321Y-105568346D01*
X137305098Y-105660000D01*
X137774902Y-105660000D01*
X138235679Y-105568346D01*
X138669721Y-105388560D01*
X139060349Y-105127550D01*
X139392550Y-104795349D01*
X139653560Y-104404721D01*
X139833346Y-103970679D01*
X139925000Y-103509902D01*
X139925000Y-103202238D01*
X140190585Y-102936653D01*
X147187952Y-102936653D01*
X147343962Y-103252214D01*
X147718745Y-103443020D01*
X148123551Y-103557044D01*
X148542824Y-103589902D01*
X148960451Y-103540334D01*
X149360383Y-103410243D01*
X149656038Y-103252214D01*
X149665977Y-103232110D01*
X164962447Y-103232110D01*
X164974707Y-103356592D01*
X165011017Y-103476290D01*
X165069982Y-103586604D01*
X165149334Y-103683295D01*
X165246025Y-103762647D01*
X165356339Y-103821612D01*
X165476037Y-103857922D01*
X165600519Y-103870182D01*
X168214769Y-103867110D01*
X168373519Y-103708360D01*
X168373519Y-100259110D01*
X168627519Y-100259110D01*
X168627519Y-103708360D01*
X168786269Y-103867110D01*
X171400519Y-103870182D01*
X171525001Y-103857922D01*
X171644699Y-103821612D01*
X171755013Y-103762647D01*
X171851704Y-103683295D01*
X171931056Y-103586604D01*
X171990021Y-103476290D01*
X172026331Y-103356592D01*
X172038591Y-103232110D01*
X172035519Y-100417860D01*
X171876769Y-100259110D01*
X168627519Y-100259110D01*
X168373519Y-100259110D01*
X165124269Y-100259110D01*
X164965519Y-100417860D01*
X164962447Y-103232110D01*
X149665977Y-103232110D01*
X149812048Y-102936653D01*
X148500000Y-101624605D01*
X147187952Y-102936653D01*
X140190585Y-102936653D01*
X141099320Y-102027919D01*
X141161714Y-101976714D01*
X141366031Y-101727752D01*
X141494275Y-101487824D01*
X146355098Y-101487824D01*
X146404666Y-101905451D01*
X146534757Y-102305383D01*
X146692786Y-102601038D01*
X147008347Y-102757048D01*
X148320395Y-101445000D01*
X148679605Y-101445000D01*
X149991653Y-102757048D01*
X150307214Y-102601038D01*
X150498020Y-102226255D01*
X150612044Y-101821449D01*
X150644902Y-101402176D01*
X150595334Y-100984549D01*
X150465243Y-100584617D01*
X150414157Y-100489040D01*
X159223091Y-100489040D01*
X159317930Y-100753881D01*
X159462615Y-100995131D01*
X159651586Y-101203519D01*
X159877580Y-101371037D01*
X160131913Y-101491246D01*
X160265961Y-101531904D01*
X160488000Y-101409915D01*
X160488000Y-100267000D01*
X160742000Y-100267000D01*
X160742000Y-101409915D01*
X160964039Y-101531904D01*
X161098087Y-101491246D01*
X161352420Y-101371037D01*
X161578414Y-101203519D01*
X161767385Y-100995131D01*
X161912070Y-100753881D01*
X162006909Y-100489040D01*
X161885624Y-100267000D01*
X160742000Y-100267000D01*
X160488000Y-100267000D01*
X159344376Y-100267000D01*
X159223091Y-100489040D01*
X150414157Y-100489040D01*
X150307214Y-100288962D01*
X149991653Y-100132952D01*
X148679605Y-101445000D01*
X148320395Y-101445000D01*
X147008347Y-100132952D01*
X146692786Y-100288962D01*
X146501980Y-100663745D01*
X146387956Y-101068551D01*
X146355098Y-101487824D01*
X141494275Y-101487824D01*
X141517852Y-101443715D01*
X141611343Y-101135516D01*
X141635000Y-100895322D01*
X141635000Y-100895320D01*
X141642911Y-100815001D01*
X141635000Y-100734681D01*
X141635000Y-99953347D01*
X147187952Y-99953347D01*
X148500000Y-101265395D01*
X149812048Y-99953347D01*
X149656038Y-99637786D01*
X149281255Y-99446980D01*
X148876449Y-99332956D01*
X148457176Y-99300098D01*
X148039549Y-99349666D01*
X147639617Y-99479757D01*
X147343962Y-99637786D01*
X147187952Y-99953347D01*
X141635000Y-99953347D01*
X141635000Y-97856653D01*
X147187952Y-97856653D01*
X147343962Y-98172214D01*
X147718745Y-98363020D01*
X148123551Y-98477044D01*
X148542824Y-98509902D01*
X148960451Y-98460334D01*
X149360383Y-98330243D01*
X149656038Y-98172214D01*
X149812048Y-97856653D01*
X148500000Y-96544605D01*
X147187952Y-97856653D01*
X141635000Y-97856653D01*
X141635000Y-96407824D01*
X146355098Y-96407824D01*
X146404666Y-96825451D01*
X146534757Y-97225383D01*
X146692786Y-97521038D01*
X147008347Y-97677048D01*
X148320395Y-96365000D01*
X148679605Y-96365000D01*
X149991653Y-97677048D01*
X150307214Y-97521038D01*
X150498020Y-97146255D01*
X150612044Y-96741449D01*
X150644902Y-96322176D01*
X150595334Y-95904549D01*
X150465243Y-95504617D01*
X150307214Y-95208962D01*
X149991653Y-95052952D01*
X148679605Y-96365000D01*
X148320395Y-96365000D01*
X147008347Y-95052952D01*
X146692786Y-95208962D01*
X146501980Y-95583745D01*
X146387956Y-95988551D01*
X146355098Y-96407824D01*
X141635000Y-96407824D01*
X141635000Y-94873347D01*
X147187952Y-94873347D01*
X148500000Y-96185395D01*
X149812048Y-94873347D01*
X149656038Y-94557786D01*
X149281255Y-94366980D01*
X148876449Y-94252956D01*
X148457176Y-94220098D01*
X148039549Y-94269666D01*
X147639617Y-94399757D01*
X147343962Y-94557786D01*
X147187952Y-94873347D01*
X141635000Y-94873347D01*
X141635000Y-88080322D01*
X141642911Y-88000000D01*
X141624523Y-87813298D01*
X141611343Y-87679484D01*
X141517852Y-87371285D01*
X141366031Y-87087248D01*
X141161714Y-86838286D01*
X140912752Y-86633969D01*
X140628715Y-86482148D01*
X140320516Y-86388657D01*
X140000000Y-86357089D01*
X139919678Y-86365000D01*
X136916102Y-86365000D01*
X136918072Y-86345000D01*
X136918072Y-86179429D01*
X136947852Y-86123715D01*
X137041343Y-85815516D01*
X137072911Y-85495000D01*
X137041343Y-85174484D01*
X136947852Y-84866285D01*
X136918072Y-84810571D01*
X136918072Y-84645000D01*
X136905812Y-84520518D01*
X136869502Y-84400820D01*
X136810537Y-84290506D01*
X136731185Y-84193815D01*
X136634494Y-84114463D01*
X136524180Y-84055498D01*
X136404482Y-84019188D01*
X136280000Y-84006928D01*
X136114429Y-84006928D01*
X136058715Y-83977148D01*
X135750516Y-83883657D01*
X135510322Y-83860000D01*
X129848072Y-83860000D01*
X129848072Y-83745000D01*
X129835812Y-83620518D01*
X129799502Y-83500820D01*
X129740537Y-83390506D01*
X129661185Y-83293815D01*
X129564494Y-83214463D01*
X129454180Y-83155498D01*
X129334482Y-83119188D01*
X129210000Y-83106928D01*
X127384167Y-83106928D01*
X125722915Y-81445677D01*
X125671704Y-81383276D01*
X125422742Y-81178959D01*
X125138705Y-81027138D01*
X124830506Y-80933647D01*
X124590312Y-80909990D01*
X124590309Y-80909990D01*
X124509990Y-80902079D01*
X124429671Y-80909990D01*
X119982597Y-80909990D01*
X119902277Y-80902079D01*
X119821958Y-80909990D01*
X119821956Y-80909990D01*
X119581762Y-80933647D01*
X119273563Y-81027138D01*
X118989526Y-81178959D01*
X118740564Y-81383276D01*
X118689358Y-81445671D01*
X114900687Y-85234343D01*
X114838286Y-85285554D01*
X114633969Y-85534517D01*
X114482148Y-85818554D01*
X114388657Y-86126753D01*
X114367162Y-86345000D01*
X114357089Y-86447268D01*
X114365000Y-86527588D01*
X114365001Y-93919671D01*
X114357089Y-94000000D01*
X114388658Y-94320516D01*
X114482148Y-94628714D01*
X114551827Y-94759074D01*
X114633970Y-94912752D01*
X114838287Y-95161714D01*
X114900682Y-95212920D01*
X116162884Y-96475123D01*
X116115000Y-96715852D01*
X116115000Y-97284148D01*
X116225869Y-97841523D01*
X116443346Y-98366560D01*
X116759074Y-98839080D01*
X117160920Y-99240926D01*
X117633440Y-99556654D01*
X118158477Y-99774131D01*
X118715852Y-99885000D01*
X119284148Y-99885000D01*
X119841523Y-99774131D01*
X120366560Y-99556654D01*
X120839080Y-99240926D01*
X121240926Y-98839080D01*
X121556654Y-98366560D01*
X121644285Y-98155000D01*
X127582101Y-98155000D01*
X127799651Y-98372550D01*
X128190279Y-98633560D01*
X128624321Y-98813346D01*
X129085098Y-98905000D01*
X129554902Y-98905000D01*
X130015679Y-98813346D01*
X130449721Y-98633560D01*
X130840349Y-98372550D01*
X131057899Y-98155000D01*
X132662101Y-98155000D01*
X132879651Y-98372550D01*
X133270279Y-98633560D01*
X133704321Y-98813346D01*
X134165098Y-98905000D01*
X134634902Y-98905000D01*
X135095679Y-98813346D01*
X135529721Y-98633560D01*
X135920349Y-98372550D01*
X136252550Y-98040349D01*
X136513560Y-97649721D01*
X136693346Y-97215679D01*
X136785000Y-96754902D01*
X136785000Y-96285098D01*
X136693346Y-95824321D01*
X136513560Y-95390279D01*
X136252550Y-94999651D01*
X135920349Y-94667450D01*
X135529721Y-94406440D01*
X135095679Y-94226654D01*
X134634902Y-94135000D01*
X134165098Y-94135000D01*
X133704321Y-94226654D01*
X133270279Y-94406440D01*
X132879651Y-94667450D01*
X132662101Y-94885000D01*
X131057899Y-94885000D01*
X130840349Y-94667450D01*
X130449721Y-94406440D01*
X130015679Y-94226654D01*
X129554902Y-94135000D01*
X129085098Y-94135000D01*
X128624321Y-94226654D01*
X128190279Y-94406440D01*
X127799651Y-94667450D01*
X127582101Y-94885000D01*
X120965006Y-94885000D01*
X120839080Y-94759074D01*
X120366560Y-94443346D01*
X119841523Y-94225869D01*
X119284148Y-94115000D01*
X118715852Y-94115000D01*
X118475123Y-94162884D01*
X117635000Y-93322762D01*
X117635000Y-87124506D01*
X119321928Y-85437579D01*
X119321928Y-86495000D01*
X119348599Y-86765799D01*
X119427589Y-87026192D01*
X119555860Y-87266171D01*
X119728485Y-87476515D01*
X119938829Y-87649140D01*
X120178808Y-87777411D01*
X120439201Y-87856401D01*
X120710000Y-87883072D01*
X121535833Y-87883072D01*
X122259078Y-88606318D01*
X122187104Y-88740972D01*
X122101001Y-89024814D01*
X122071928Y-89320000D01*
X122071928Y-91070000D01*
X122101001Y-91365186D01*
X122187104Y-91649028D01*
X122326927Y-91910618D01*
X122515097Y-92139903D01*
X122744382Y-92328073D01*
X123005972Y-92467896D01*
X123289814Y-92553999D01*
X123585000Y-92583072D01*
X125335000Y-92583072D01*
X125630186Y-92553999D01*
X125914028Y-92467896D01*
X126175618Y-92328073D01*
X126404903Y-92139903D01*
X126593073Y-91910618D01*
X126636164Y-91830000D01*
X133189681Y-91830000D01*
X133270000Y-91837911D01*
X133350319Y-91830000D01*
X133350322Y-91830000D01*
X133590516Y-91806343D01*
X133898715Y-91712852D01*
X134182752Y-91561031D01*
X134431714Y-91356714D01*
X134482925Y-91294313D01*
X136142239Y-89635000D01*
X138365001Y-89635000D01*
X138365000Y-100137761D01*
X137612762Y-100890000D01*
X137305098Y-100890000D01*
X136844321Y-100981654D01*
X136410279Y-101161440D01*
X136019651Y-101422450D01*
X135802101Y-101640000D01*
X134197899Y-101640000D01*
X133980349Y-101422450D01*
X133589721Y-101161440D01*
X133155679Y-100981654D01*
X132694902Y-100890000D01*
X132225098Y-100890000D01*
X131764321Y-100981654D01*
X131330279Y-101161440D01*
X130939651Y-101422450D01*
X130722101Y-101640000D01*
X124420006Y-101640000D01*
X124039080Y-101259074D01*
X123566560Y-100943346D01*
X123041523Y-100725869D01*
X122484148Y-100615000D01*
X121915852Y-100615000D01*
X121358477Y-100725869D01*
X120833440Y-100943346D01*
X120360920Y-101259074D01*
X119959074Y-101660920D01*
X119643346Y-102133440D01*
X119425869Y-102658477D01*
X119315000Y-103215852D01*
X119315000Y-103784148D01*
X119425869Y-104341523D01*
X119643346Y-104866560D01*
X119959074Y-105339080D01*
X120360920Y-105740926D01*
X120833440Y-106056654D01*
X121358477Y-106274131D01*
X121689622Y-106340000D01*
X113660000Y-106340000D01*
X113660000Y-79660000D01*
X172340000Y-79660000D01*
X172340000Y-92460627D01*
G37*
%TD.AperFunction*%
%TD*%
M02*
