%TF.GenerationSoftware,KiCad,Pcbnew,5.1.8-db9833491~87~ubuntu20.04.1*%
%TF.CreationDate,2020-11-29T22:55:04+09:00*%
%TF.ProjectId,Faston_and_Sun_LED-PCB,46617374-6f6e-45f6-916e-645f53756e5f,V1.0.1*%
%TF.SameCoordinates,Original*%
%TF.FileFunction,Legend,Top*%
%TF.FilePolarity,Positive*%
%FSLAX46Y46*%
G04 Gerber Fmt 4.6, Leading zero omitted, Abs format (unit mm)*
G04 Created by KiCad (PCBNEW 5.1.8-db9833491~87~ubuntu20.04.1) date 2020-11-29 22:55:04*
%MOMM*%
%LPD*%
G01*
G04 APERTURE LIST*
%ADD10C,0.120000*%
%ADD11C,0.127000*%
%ADD12C,0.203200*%
%ADD13C,0.010000*%
%ADD14C,0.015000*%
%ADD15C,0.150000*%
G04 APERTURE END LIST*
D10*
X155500000Y-103905000D02*
X155500000Y-82905000D01*
X142500000Y-103905000D02*
X155500000Y-103905000D01*
X142500000Y-82905000D02*
X142500000Y-103905000D01*
X149000000Y-82905000D02*
X155500000Y-82905000D01*
X149000000Y-82905000D02*
X142500000Y-82905000D01*
D11*
%TO.C,J4*%
X148100000Y-100175000D02*
X148100000Y-97635000D01*
X148900000Y-100175000D02*
X148900000Y-97635000D01*
X148100000Y-95155000D02*
X148900000Y-95155000D01*
X148100000Y-102655000D02*
X148900000Y-102655000D01*
%TO.C,J3*%
X147730000Y-91675000D02*
X150270000Y-91675000D01*
X147730000Y-92475000D02*
X150270000Y-92475000D01*
X152750000Y-91675000D02*
X152750000Y-92475000D01*
X145250000Y-91675000D02*
X145250000Y-92475000D01*
D10*
%TO.C,D1*%
X164000000Y-85555000D02*
X164000000Y-85255000D01*
X163350000Y-84905000D02*
X164000000Y-85555000D01*
X163650000Y-84905000D02*
X163350000Y-84905000D01*
X164000000Y-85255000D02*
X163650000Y-84905000D01*
D12*
%TO.C,U1*%
X165230000Y-101587510D02*
X165230000Y-95593110D01*
X165230000Y-95593110D02*
X171770000Y-95593110D01*
X171770000Y-95593110D02*
X171770000Y-101587510D01*
D13*
G36*
X168881519Y-94676930D02*
G01*
X168881519Y-95542310D01*
X168119270Y-95542310D01*
X168119270Y-94676930D01*
X168881519Y-94676930D01*
G37*
X168881519Y-94676930D02*
X168881519Y-95542310D01*
X168119270Y-95542310D01*
X168119270Y-94676930D01*
X168881519Y-94676930D01*
D10*
%TO.C,R1*%
X161985000Y-97600000D02*
G75*
G03*
X161985000Y-97600000I-1370000J0D01*
G01*
X160615000Y-98970000D02*
X160615000Y-99040000D01*
%TO.C,J2*%
X134100000Y-89365000D02*
X136760000Y-89365000D01*
X134100000Y-86765000D02*
X134100000Y-89365000D01*
X136760000Y-86765000D02*
X136760000Y-89365000D01*
X134100000Y-86765000D02*
X136760000Y-86765000D01*
X134100000Y-85495000D02*
X134100000Y-84165000D01*
X134100000Y-84165000D02*
X135430000Y-84165000D01*
%TO.C,J1*%
X128560000Y-81745000D02*
X128560000Y-80695000D01*
X127510000Y-80695000D02*
X128560000Y-80695000D01*
X122460000Y-90095000D02*
X113660000Y-90095000D01*
X113660000Y-90095000D02*
X113660000Y-80895000D01*
X128360000Y-87395000D02*
X128360000Y-90095000D01*
X128360000Y-90095000D02*
X126460000Y-90095000D01*
X113660000Y-80895000D02*
X128360000Y-80895000D01*
X128360000Y-80895000D02*
X128360000Y-83495000D01*
%TO.C,J4*%
D14*
X144771206Y-99874932D02*
X145486678Y-99874932D01*
X145629772Y-99922630D01*
X145725169Y-100018026D01*
X145772867Y-100161120D01*
X145772867Y-100256517D01*
X145105093Y-98968667D02*
X145772867Y-98968667D01*
X144723508Y-99207158D02*
X145438980Y-99445648D01*
X145438980Y-98825572D01*
%TO.C,J3*%
X148666113Y-89356471D02*
X148666113Y-90071943D01*
X148618414Y-90215037D01*
X148523018Y-90310434D01*
X148379924Y-90358132D01*
X148284527Y-90358132D01*
X149047698Y-89356471D02*
X149667774Y-89356471D01*
X149333887Y-89738056D01*
X149476981Y-89738056D01*
X149572377Y-89785754D01*
X149620075Y-89833452D01*
X149667774Y-89928849D01*
X149667774Y-90167339D01*
X149620075Y-90262736D01*
X149572377Y-90310434D01*
X149476981Y-90358132D01*
X149190792Y-90358132D01*
X149095396Y-90310434D01*
X149047698Y-90262736D01*
%TO.C,J6*%
D15*
X127191666Y-104587380D02*
X127191666Y-105301666D01*
X127144047Y-105444523D01*
X127048809Y-105539761D01*
X126905952Y-105587380D01*
X126810714Y-105587380D01*
X128096428Y-104587380D02*
X127905952Y-104587380D01*
X127810714Y-104635000D01*
X127763095Y-104682619D01*
X127667857Y-104825476D01*
X127620238Y-105015952D01*
X127620238Y-105396904D01*
X127667857Y-105492142D01*
X127715476Y-105539761D01*
X127810714Y-105587380D01*
X128001190Y-105587380D01*
X128096428Y-105539761D01*
X128144047Y-105492142D01*
X128191666Y-105396904D01*
X128191666Y-105158809D01*
X128144047Y-105063571D01*
X128096428Y-105015952D01*
X128001190Y-104968333D01*
X127810714Y-104968333D01*
X127715476Y-105015952D01*
X127667857Y-105063571D01*
X127620238Y-105158809D01*
%TO.C,J5*%
X123991666Y-97857380D02*
X123991666Y-98571666D01*
X123944047Y-98714523D01*
X123848809Y-98809761D01*
X123705952Y-98857380D01*
X123610714Y-98857380D01*
X124944047Y-97857380D02*
X124467857Y-97857380D01*
X124420238Y-98333571D01*
X124467857Y-98285952D01*
X124563095Y-98238333D01*
X124801190Y-98238333D01*
X124896428Y-98285952D01*
X124944047Y-98333571D01*
X124991666Y-98428809D01*
X124991666Y-98666904D01*
X124944047Y-98762142D01*
X124896428Y-98809761D01*
X124801190Y-98857380D01*
X124563095Y-98857380D01*
X124467857Y-98809761D01*
X124420238Y-98762142D01*
%TO.C,J8*%
X139966666Y-104227380D02*
X139966666Y-104941666D01*
X139919047Y-105084523D01*
X139823809Y-105179761D01*
X139680952Y-105227380D01*
X139585714Y-105227380D01*
X140585714Y-104655952D02*
X140490476Y-104608333D01*
X140442857Y-104560714D01*
X140395238Y-104465476D01*
X140395238Y-104417857D01*
X140442857Y-104322619D01*
X140490476Y-104275000D01*
X140585714Y-104227380D01*
X140776190Y-104227380D01*
X140871428Y-104275000D01*
X140919047Y-104322619D01*
X140966666Y-104417857D01*
X140966666Y-104465476D01*
X140919047Y-104560714D01*
X140871428Y-104608333D01*
X140776190Y-104655952D01*
X140585714Y-104655952D01*
X140490476Y-104703571D01*
X140442857Y-104751190D01*
X140395238Y-104846428D01*
X140395238Y-105036904D01*
X140442857Y-105132142D01*
X140490476Y-105179761D01*
X140585714Y-105227380D01*
X140776190Y-105227380D01*
X140871428Y-105179761D01*
X140919047Y-105132142D01*
X140966666Y-105036904D01*
X140966666Y-104846428D01*
X140919047Y-104751190D01*
X140871428Y-104703571D01*
X140776190Y-104655952D01*
%TO.C,J7*%
X136826666Y-97877380D02*
X136826666Y-98591666D01*
X136779047Y-98734523D01*
X136683809Y-98829761D01*
X136540952Y-98877380D01*
X136445714Y-98877380D01*
X137207619Y-97877380D02*
X137874285Y-97877380D01*
X137445714Y-98877380D01*
%TO.C,D1*%
X160552380Y-87143095D02*
X159552380Y-87143095D01*
X159552380Y-86905000D01*
X159600000Y-86762142D01*
X159695238Y-86666904D01*
X159790476Y-86619285D01*
X159980952Y-86571666D01*
X160123809Y-86571666D01*
X160314285Y-86619285D01*
X160409523Y-86666904D01*
X160504761Y-86762142D01*
X160552380Y-86905000D01*
X160552380Y-87143095D01*
X160552380Y-85619285D02*
X160552380Y-86190714D01*
X160552380Y-85905000D02*
X159552380Y-85905000D01*
X159695238Y-86000238D01*
X159790476Y-86095476D01*
X159838095Y-86190714D01*
%TO.C,U1*%
D14*
X170452273Y-90667054D02*
X171261956Y-90667054D01*
X171357213Y-90619426D01*
X171404841Y-90571798D01*
X171452470Y-90476541D01*
X171452470Y-90286027D01*
X171404841Y-90190770D01*
X171357213Y-90143142D01*
X171261956Y-90095513D01*
X170452273Y-90095513D01*
X171452470Y-89095316D02*
X171452470Y-89666857D01*
X171452470Y-89381087D02*
X170452273Y-89381087D01*
X170595158Y-89476344D01*
X170690415Y-89571601D01*
X170738043Y-89666857D01*
%TO.C,R1*%
D15*
X158452380Y-96071666D02*
X157976190Y-96405000D01*
X158452380Y-96643095D02*
X157452380Y-96643095D01*
X157452380Y-96262142D01*
X157500000Y-96166904D01*
X157547619Y-96119285D01*
X157642857Y-96071666D01*
X157785714Y-96071666D01*
X157880952Y-96119285D01*
X157928571Y-96166904D01*
X157976190Y-96262142D01*
X157976190Y-96643095D01*
X158452380Y-95119285D02*
X158452380Y-95690714D01*
X158452380Y-95405000D02*
X157452380Y-95405000D01*
X157595238Y-95500238D01*
X157690476Y-95595476D01*
X157738095Y-95690714D01*
%TO.C,J2*%
X135096666Y-82617380D02*
X135096666Y-83331666D01*
X135049047Y-83474523D01*
X134953809Y-83569761D01*
X134810952Y-83617380D01*
X134715714Y-83617380D01*
X135525238Y-82712619D02*
X135572857Y-82665000D01*
X135668095Y-82617380D01*
X135906190Y-82617380D01*
X136001428Y-82665000D01*
X136049047Y-82712619D01*
X136096666Y-82807857D01*
X136096666Y-82903095D01*
X136049047Y-83045952D01*
X135477619Y-83617380D01*
X136096666Y-83617380D01*
%TO.C,J1*%
X118676666Y-90697380D02*
X118676666Y-91411666D01*
X118629047Y-91554523D01*
X118533809Y-91649761D01*
X118390952Y-91697380D01*
X118295714Y-91697380D01*
X119676666Y-91697380D02*
X119105238Y-91697380D01*
X119390952Y-91697380D02*
X119390952Y-90697380D01*
X119295714Y-90840238D01*
X119200476Y-90935476D01*
X119105238Y-90983095D01*
%TD*%
M02*
