M48
; DRILL file {KiCad 5.1.8-db9833491~87~ubuntu20.04.1} date Sun Nov 29 22:55:06 2020
; FORMAT={-:-/ absolute / inch / decimal}
; #@! TF.CreationDate,2020-11-29T22:55:06+09:00
; #@! TF.GenerationSoftware,Kicad,Pcbnew,5.1.8-db9833491~87~ubuntu20.04.1
; #@! TF.FileFunction,Plated,1,2,PTH
FMAT,2
INCH
T1C0.0315
T2C0.0394
T3C0.0563
T4C0.0571
T5C0.0984
%
G90
G05
T1
X6.3234Y-3.8425
X6.3234Y-3.9425
T2
X5.3319Y-3.3659
X5.3319Y-3.4659
T3
X5.8465Y-3.7939
X5.8465Y-3.9939
X5.7661Y-3.625
X5.9661Y-3.625
T4
X5.0913Y-3.8
X5.2913Y-3.8
X5.215Y-4.0659
X5.415Y-4.0659
T5
X4.811Y-4.0748
X4.685Y-3.8189
T2
G00X4.7819Y-3.3266
M15
G01X4.7819Y-3.4053
M16
G05
G00X4.8606Y-3.551
M15
G01X4.9394Y-3.551
M16
G05
G00X5.0181Y-3.3266
M15
G01X5.0181Y-3.4053
M16
G05
T0
M30
